<svg width="30" height="30" viewBox="0 0 30 30" fill="none" xmlns="http://www.w3.org/2000/svg">
<path d="M24.3712 9.98625L15 19.1213L5.62874 9.98625C5.46131 9.82271 5.23654 9.73115 5.00249 9.73115C4.76844 9.73115 4.54367 9.82271 4.37624 9.98625C4.29517 10.0657 4.23076 10.1605 4.18679 10.2651C4.14283 10.3698 4.12018 10.4821 4.12018 10.5956C4.12018 10.7091 4.14283 10.8215 4.18679 10.9261C4.23076 11.0308 4.29517 11.1256 4.37624 11.205L14.3456 20.925C14.5207 21.0957 14.7555 21.1912 15 21.1912C15.2445 21.1912 15.4793 21.0957 15.6544 20.925L25.6237 11.2069C25.7054 11.1274 25.7703 11.0323 25.8146 10.9274C25.8589 10.8224 25.8817 10.7096 25.8817 10.5956C25.8817 10.4817 25.8589 10.3689 25.8146 10.2639C25.7703 10.1589 25.7054 10.0639 25.6237 9.98438C25.4563 9.82084 25.2315 9.72928 24.9975 9.72928C24.7634 9.72928 24.5387 9.82084 24.3712 9.98438V9.98625Z" fill="#94FEBF"/>
</svg>
