<svg width="30" height="30" viewBox="0 0 30 30" fill="none" xmlns="http://www.w3.org/2000/svg">
<path d="M15 18.75C17.0711 18.75 18.75 17.0711 18.75 15C18.75 12.9289 17.0711 11.25 15 11.25C12.9289 11.25 11.25 12.9289 11.25 15C11.25 17.0711 12.9289 18.75 15 18.75Z" fill="white"/>
<path d="M28.7602 13.9805C27.2098 11.5828 25.1983 9.54609 22.9436 8.09004C20.4492 6.47754 17.6953 5.625 14.9801 5.625C12.4887 5.625 10.0389 6.33691 7.69864 7.74082C5.31212 9.17227 3.15001 11.2635 1.27208 13.9559C1.06008 14.2601 0.943321 14.6206 0.936644 14.9914C0.929966 15.3622 1.03367 15.7266 1.23458 16.0383C2.78204 18.46 4.77364 20.4996 6.99317 21.9357C9.4922 23.5547 12.1816 24.375 14.9801 24.375C17.717 24.375 20.4768 23.5295 22.9606 21.9305C25.2141 20.4791 27.2215 18.4348 28.766 16.0172C28.96 15.7127 29.0626 15.359 29.0615 14.998C29.0605 14.637 28.9559 14.2838 28.7602 13.9805ZM15 20.625C13.8875 20.625 12.8 20.2951 11.8749 19.677C10.9499 19.0589 10.2289 18.1804 9.80319 17.1526C9.37744 16.1248 9.26605 14.9938 9.48309 13.9026C9.70013 12.8115 10.2359 11.8092 11.0225 11.0225C11.8092 10.2359 12.8115 9.70013 13.9026 9.48308C14.9938 9.26604 16.1248 9.37744 17.1526 9.80318C18.1804 10.2289 19.0589 10.9499 19.677 11.8749C20.2951 12.7999 20.625 13.8875 20.625 15C20.6233 16.4913 20.0301 17.9211 18.9756 18.9756C17.9211 20.0301 16.4913 20.6233 15 20.625Z" fill="white"/>
</svg>
