<svg width="23" height="23" viewBox="0 0 23 23" fill="none" xmlns="http://www.w3.org/2000/svg">
<circle cx="11.5" cy="11.5" r="11.5" fill="#94FEBF"/>
<g clip-path="url(#clip0_7_36)">
<path d="M10.15 15.175C10.0679 15.1751 9.98664 15.159 9.91081 15.1275C9.83498 15.0961 9.76611 15.05 9.70815 14.9919L7.30815 12.5919C7.24845 12.5342 7.20084 12.4653 7.16808 12.389C7.13533 12.3127 7.11808 12.2307 7.11736 12.1478C7.11664 12.0648 7.13246 11.9825 7.16388 11.9057C7.19531 11.8288 7.24172 11.7591 7.3004 11.7004C7.35908 11.6417 7.42886 11.5953 7.50567 11.5639C7.58248 11.5324 7.66478 11.5166 7.74777 11.5173C7.83076 11.5181 7.91277 11.5353 7.98902 11.5681C8.06528 11.6008 8.13424 11.6484 8.1919 11.7081L10.15 13.6662L14.8081 9.00812C14.926 8.89428 15.0839 8.83128 15.2478 8.8327C15.4116 8.83413 15.5684 8.89986 15.6843 9.01574C15.8002 9.13162 15.8659 9.28838 15.8673 9.45225C15.8687 9.61612 15.8057 9.774 15.6919 9.89187L10.5919 14.9919C10.5339 15.05 10.4651 15.0961 10.3892 15.1275C10.3134 15.159 10.2321 15.1751 10.15 15.175Z" fill="black"/>
</g>
<defs>
<clipPath id="clip0_7_36">
<rect width="9" height="8" fill="white" transform="translate(7 7)"/>
</clipPath>
</defs>
</svg>
